PathFileType	4	(X/Y/Z)	C:/Users/beibeiliu/ov580/test_trc/User2\sequence.34_training_dense_left.trc
DataRate	CameraRate	NumFrames	NumMarkers	Units	OrigDataRate	OrigDataStartFrame	OrigNumFrames
120	120	22	19	mm	120	82	326
Frame#	Time	ThumbCMC			ThumbMCP			ThumbIP			ThumbTip			IndexMCP			IndexPIP			IndexTip			MiddleMCP			MiddlePIP			MiddleTip			RingMCP			RingPIP			RingTip			PinkyMCP			PinkyPIP			PinkyTip			BackHand1			BackHand2			BackHand3	
		X0	Y0	Z0	X1	Y1	Z1	X2	Y2	Z2	X3	Y3	Z3	X4	Y4	Z4	X5	Y5	Z5	X6	Y6	Z6	X7	Y7	Z7	X8	Y8	Z8	X9	Y9	Z9	X10	Y10	Z10	X11	Y11	Z11	X12	Y12	Z12	X13	Y13	Z13	X14	Y14	Z14	X15	Y15	Z15	X16	Y16	Z16	X17	Y17	Z17	X18	Y18	Z18	
81	0.675	-191.594	7.31704	67.1884	-178.13	17.146	37.7103	-163.257	14.1116	5.6222	-147.385	5.32306	-12.738	-166.636	-22.7184	-7.92362	-135.24	-19.4533	-5.7025	-144.01	-8.24269	29.3538	-153.795	-39.4685	-4.20585	-122.933	-27.3599	9.6842	-141.504	-22.9828	46.2447	-143.897	-57.7503	9.24699	-119.168	-45.3657	23.0431	-146.516	-33.3239	50.3751	-138.922	-68.9971	23.0313	-120.194	-50.1457	37.8955	-141.736	-44.7737	64.0656	-194.299	-66.9711	48.4971	-205.254	-62.5843	79.8903	-209.331	-29.3307	56.8918	
82	0.683333	-195.485	4.75718	65.7943	-183.798	15.3902	39.8643	-167.74	10.9173	4.02273	-153.998	0.102184	-14.1707	-169.079	-24.0736	-10.2412	-137.599	-17.1305	-7.74013	-144.91	-8.86804	27.32	-157.852	-42.6046	-3.07994	-124.428	-27.7393	11.4086	-144.457	-21.5798	45.2551	-143.758	-57.6291	8.00536	-120.206	-44.7298	23.2411	-145.347	-31.8316	48.3116	-142.629	-72.0495	25.6521	-118.992	-50.9748	38.1537	-140.24	-44.02	61.5043	-195.162	-65.0815	45.739	-207.987	-60.728	79.899	-212.806	-32.5533	58.6414	
83	0.691667	-197.242	2.92513	68.6992	-188.596	16.4678	36.2721	-173.589	9.49233	4.91497	-158.176	-0.0878752	-16.4836	-171.717	-24.834	-9.19182	-139.336	-18.3822	-7.21571	-147.008	-6.62518	25.9662	-154.645	-45.1063	-4.69641	-125.403	-31.2164	10.2417	-143.15	-22.3645	43.4515	-146.061	-58.1503	8.08387	-120.963	-43.5099	21.2562	-144.824	-34.586	50.329	-140.882	-73.4265	26.034	-118.215	-52.676	37.9931	-142.459	-41.367	59.5664	-193.3	-68.6538	48.4468	-205.704	-64.4117	82.1786	-213.422	-33.0533	56.8153	
84	0.7	-201.606	2.04039	64.3445	-193.598	13.6839	34.034	-180.022	11.6593	0.561158	-162.926	-0.660683	-16.5781	-174.048	-27.1326	-9.1794	-140.476	-19.2128	-4.71894	-148.858	-5.31796	24.2817	-156.962	-42.2857	-5.49536	-126.654	-31.5812	6.91159	-145.25	-18.8881	42.2677	-145.156	-59.8376	7.60888	-123.156	-39.9879	21.9013	-147.032	-32.9326	48.4527	-141.673	-70.8173	22.7121	-118.943	-51.8602	36.3496	-140.831	-39.6388	57.6904	-195.28	-71.3251	48.607	-207.146	-63.1178	84.309	-215.234	-33.5214	56.8567	
85	0.708333	-203.431	2.5217	66.1967	-197.246	10.0757	34.8486	-183.704	7.26101	3.62493	-167.844	-4.9086	-16.9555	-172.581	-29.7526	-9.27155	-143.992	-21.6661	-8.97911	-151.229	-7.46952	24.4028	-160.605	-44.4342	-5.29417	-128.789	-28.0128	7.1513	-145.224	-19.0889	39.7477	-145.108	-61.7654	7.70239	-124.194	-39.8239	18.4495	-146.602	-34.91	49.0519	-138.844	-74.2653	22.7413	-120.208	-51.0968	33.2184	-141.401	-40.7022	60.9845	-194.422	-70.8816	52.3486	-207.446	-63.1161	80.8923	-215.983	-33.421	59.9882	
86	0.716667	-204.182	0.0338947	67.3498	-201.026	10.7559	34.3443	-189.464	10.7051	2.21805	-170.4	-8.93261	-18.0083	-174.149	-30.9431	-7.7419	-143.089	-17.7334	-9.24783	-153.955	-5.97372	25.1868	-160.797	-48.4891	-3.28471	-130.231	-31.1557	3.52158	-148.836	-20.7228	42.0642	-146.962	-59.4809	7.39886	-123.813	-41.0424	21.1559	-143.721	-33.9455	46.8964	-142.969	-72.1913	23.0261	-122.811	-47.7543	32.2025	-138.491	-41.372	58.6562	-193.776	-70.2491	54.2052	-208.434	-63.4982	80.2711	-217.285	-34.2511	58.1067	
87	0.725	-204.86	1.41247	67.0102	-202.667	12.6133	33.787	-189.032	6.63714	3.47911	-171.656	-6.42483	-16.9688	-172.821	-30.8242	-9.98237	-143.183	-20.7493	-8.82284	-152.947	-6.75843	24.9918	-160.434	-45.382	-6.69398	-129.967	-29.02	2.65455	-144.567	-19.9401	37.8268	-146.56	-63.007	7.87593	-124.169	-42.2305	17.1477	-146.022	-33.5996	46.367	-143.604	-73.1002	24.0066	-119.99	-50.3116	34.1224	-138.312	-42.319	57.9764	-195.444	-71.5765	52.8495	-208.185	-64.3614	85.5395	-216.575	-35.4804	58.5621	
88	0.733333	-204.306	1.08331	65.1664	-201.386	12.2727	36.0756	-188.657	9.90912	-1.03061	-167.962	-10.0189	-12.3005	-173.787	-30.6428	-7.39296	-141.236	-18.0605	-6.7428	-149.916	-9.42572	25.1403	-156.842	-48.0803	-5.97337	-127.664	-31.518	6.22848	-142.34	-19.7662	38.2656	-147.216	-63.8928	9.82335	-123.839	-44.336	16.6903	-142.734	-35.1487	46.4781	-143.502	-73.528	23.7561	-120.875	-52.3105	31.8667	-135.643	-43.5625	58.8644	-196.749	-68.8646	53.246	-208.082	-65.3892	83.4962	-214.216	-34.2258	54.5691	
89	0.741667	-202.207	0.460836	65.43	-199.205	12.5781	36.4505	-183.91	9.26638	3.32748	-165.934	-3.69489	-11.0864	-171.016	-29.5076	-7.69745	-140.096	-18.7714	-5.63108	-151.204	-4.83106	25.9603	-155.865	-46.8199	-6.03025	-126.924	-28.8921	5.49552	-141.954	-21.0924	40.9537	-145.987	-60.495	7.23066	-120.796	-44.5961	18.6357	-142.651	-33.662	45.6521	-142.138	-76.5166	26.2275	-119.652	-51.785	34.2646	-140.983	-42.2139	57.8021	-193.781	-71.1002	52.783	-207.543	-66.6603	83.6275	-214.495	-34.3401	54.6312	
90	0.75	-202.147	3.88712	68.1023	-194.555	13.399	38.3077	-179.061	13.9236	1.89933	-160.335	-5.60227	-9.23019	-170.231	-29.5112	-6.33242	-138.482	-20.1472	-8.02829	-149.118	-7.17047	27.2909	-158.06	-44.6398	-3.02916	-125.147	-31.0953	4.53357	-142.063	-21.0926	42.5283	-147.201	-59.338	7.97587	-119.629	-43.1779	19.0947	-143.732	-36.4026	50.2262	-137.277	-74.4765	24.0584	-119.009	-51.2336	33.1803	-137.802	-42.652	57.1871	-193.925	-65.4504	50.7712	-204.855	-66.3607	80.7304	-215.066	-32.017	55.6275	
91	0.758333	-200.291	4.76048	67.7529	-192.142	18.4427	38.2016	-174.994	18.0884	6.37197	-156.175	0.0400282	-6.87128	-164.592	-24.2537	-9.69411	-135.792	-18.4006	-5.59857	-144.932	-5.58863	27.079	-156.534	-40.6881	-3.42859	-122.172	-26.2091	9.7432	-140.757	-20.2	44.0325	-139.69	-57.0539	5.89503	-117.225	-44.4592	20.9879	-139.358	-36.8501	49.7614	-140.771	-72.4525	26.1153	-116.166	-51.697	37.4231	-137.896	-44.2079	62.6607	-193.184	-65.3198	48.4362	-206.522	-64.0323	77.8858	-210.179	-32.1667	54.274	
92	0.766667	-197.33	5.28905	69.1761	-186.974	17.1394	42.3616	-170.356	17.3332	6.64776	-151.639	-0.745025	-4.54188	-164.742	-24.1091	-5.25313	-132.312	-15.9301	-4.15791	-140.193	-6.24885	27.5097	-151.331	-42.7822	-2.50114	-120.19	-28.7829	10.5422	-140.828	-17.5811	44.6702	-138.112	-57.8712	8.65497	-115.722	-41.63	24.3919	-138.024	-32.8127	49.3344	-135.958	-72.2804	25.2699	-114.54	-49.8042	37.2924	-138.805	-41.9907	61.0486	-189.943	-67.179	49.7195	-206.729	-61.4522	81.2514	-208.593	-33.7667	58.5405	
93	0.775	-194.61	3.99424	69.6046	-183.003	16.6138	39.2897	-165.612	17.7556	11.8999	-147.178	5.54887	-8.02938	-165.096	-20.7609	-6.39486	-131.571	-13.9036	-5.66456	-140.988	-1.81342	29.779	-147.34	-38.2849	-4.49071	-118.467	-26.4833	9.06919	-137.779	-20.5149	45.1483	-134.157	-56.5139	8.70876	-114.698	-41.6059	22.8647	-140.552	-31.7749	49.3887	-136.068	-68.7303	23.8668	-113.871	-47.71	36.9867	-137.55	-42.3657	61.2142	-191.312	-63.4649	47.3932	-204.414	-59.7083	78.3457	-209.377	-31.8229	56.3587	
94	0.783333	-193.1	1.54899	70.6304	-180.126	20.5808	40.5437	-160.303	18.0386	8.32826	-142.979	5.25143	-4.6345	-159.64	-19.2083	-7.5346	-129.635	-15.2649	-2.1845	-139.19	-3.31358	29.6821	-146.679	-36.7945	-4.74878	-117.214	-23.33	11.0484	-138.175	-20.1048	47.1775	-134.659	-55.3181	8.99597	-114.019	-39.4068	22.1481	-139	-34.3763	52.6068	-134.206	-68.2482	24.7222	-110.029	-52.5235	38.2138	-133.421	-41.4403	63.6413	-188.478	-62.2483	49.3955	-204.403	-62.5255	78.5547	-206.684	-33.6673	56.4996	
95	0.791667	-191.236	1.88912	69.9129	-176.488	19.9354	43.7053	-157.282	15.264	11.6093	-138.056	8.90786	-5.78483	-157.264	-20.234	-7.57371	-127.91	-14.2272	1.32539	-142.909	-5.66651	34.5377	-145.14	-40.8566	-3.04478	-116.663	-26.3772	8.49432	-136.539	-21.408	46.9619	-133.408	-57.0057	10.0122	-112.625	-42.6172	22.5355	-134.228	-34.6273	51.0526	-133.99	-73.303	27.0729	-110.537	-49.1093	41.2155	-134.042	-40.8754	61.2785	-187.702	-66.5937	46.7489	-202.138	-61.1832	79.6875	-208.524	-29.5093	54.5206	
96	0.8	-189.286	2.38815	68.4504	-173.134	15.2786	42.1909	-152.293	17.8018	9.01146	-135.3	6.10784	-5.82402	-158.916	-19.2901	-5.37356	-127.654	-9.40934	0.781775	-142.097	-5.07562	36.1958	-147.92	-41.127	-0.0176058	-115.874	-28.6711	13.2659	-134.343	-21.4383	47.1971	-135.27	-54.3928	8.4937	-112.735	-39.8172	24.8053	-135.744	-35.5271	51.7607	-132.054	-69.9838	24.227	-112.037	-49.3911	39.7491	-131.949	-44.7419	63.6055	-187.167	-67.142	48.0084	-203.097	-65.7306	77.7467	-207.021	-28.7542	58.0907	
97	0.808333	-188.021	1.16813	69.7546	-171.215	16.1633	43.5454	-151.803	15.4446	15.2014	-133.461	6.48963	-8.15813	-161.622	-18.2192	-4.84352	-127.012	-9.43324	3.20895	-142.513	-4.36791	36.8052	-146.875	-42.9094	0.554876	-116.472	-27.0633	15.2217	-137.018	-19.5495	47.7877	-135.403	-55.5604	9.51039	-112.322	-43.7023	26.7571	-136.96	-37.2991	53.4934	-132.78	-71.0591	24.8845	-112.725	-48.6475	40.4458	-134.9	-44.492	65.1526	-189.642	-64.8217	47.0965	-202.216	-64.9104	82.7286	-205.355	-32.6053	55.4721	
98	0.816667	-189.708	3.58744	69.0782	-171.423	18.687	42.3813	-151.646	14.2932	9.47463	-135.458	5.0061	-6.43713	-159.86	-21.909	-3.87354	-127.584	-12.4121	3.59786	-139.911	-7.10506	36.0094	-146.783	-42.9223	0.128352	-117.607	-29.2654	11.8167	-139.771	-21.9033	48.7297	-134.694	-58.2885	11.0906	-112.849	-46.4382	26.8144	-136.884	-37.4013	52.4492	-133.313	-71.8891	26.3587	-114.11	-50.553	41.3036	-137.23	-46.229	66.395	-188.157	-67.0816	47.654	-202.018	-66.0465	83.0657	-206.584	-30.3066	59.6574	
99	0.825	-187.415	-1.03004	65.904	-172.173	13.3975	38.8687	-154.107	14.2623	9.59783	-137.201	6.1764	-8.81329	-157.029	-24.6274	-5.5213	-127.581	-17.1801	-0.144602	-140	-9.94296	35.664	-148.021	-46.1089	0.385639	-117.514	-30.9244	15.1305	-140.736	-22.7216	48.2059	-133.289	-61.0183	11.7747	-114.508	-45.0066	27.1289	-140.037	-37.207	51.7766	-137.031	-73.7549	26.9667	-113.862	-54.6007	40.8351	-136.085	-48.1954	62.9343	-190.134	-70.1089	49.8072	-202.657	-64.7176	80.3708	-208.229	-34.2922	59.5971	
100	0.833333	-187.189	-1.40525	70.9066	-174.132	12.2782	37.3768	-158.092	10.3471	8.21782	-142.79	4.0732	-13.2736	-159.748	-26.837	-4.95951	-128.997	-21.6602	-1.01113	-140.978	-13.6222	35.806	-144.651	-48.6856	-1.226	-117.332	-35.6164	13.7202	-140.297	-23.4005	46.6681	-137.937	-63.5061	11.8854	-115.248	-47.75	25.8883	-141.496	-40.469	53.6995	-133.816	-79.1881	28.2828	-114.913	-56.0047	40.7891	-137.412	-49.4871	64.1882	-190.025	-71.2664	49.9544	-203.773	-63.08	84.591	-206.007	-32.3285	58.4996	
101	0.841667	-187.695	-1.42879	64.9488	-174.533	7.55177	39.8224	-159.981	4.34708	7.96692	-146.057	-1.08297	-13.9484	-159.387	-28.573	-5.67245	-129.444	-22.2106	-2.18939	-141.558	-14.6662	35.7062	-148.902	-49.6433	0.923187	-117.395	-37.1094	17.2974	-138.65	-28.7486	47.7662	-136.982	-64.019	11.4625	-114.338	-49.3375	30.5455	-139.702	-41.2809	53.726	-134.499	-79.8488	28.5266	-115.457	-57.3473	40.0077	-138.683	-51.4911	65.6153	-191.362	-70.8087	51.025	-201.416	-65.817	81.5275	-207.267	-33.2465	54.7881	
102	0.85	-188.374	-0.653243	65.1275	-176.302	8.36346	35.5127	-160.523	4.79485	7.0155	-145.77	-3.53303	-14.6116	-157.125	-28.5464	-8.17649	-127.672	-21.9198	-1.06643	-137.983	-14.9276	32.3801	-145.381	-51.5726	0.0528802	-116.954	-34.3832	13.4217	-137.797	-26.9232	47.3716	-136.009	-66.8259	13.6799	-114.456	-48.3245	28.488	-138.601	-42.3658	54.6097	-136.436	-78.3201	29.3987	-115.854	-55.5507	41.7085	-138.361	-52.5929	65.9705	-189.333	-71.835	50.9782	-202.538	-62.5053	80.5476	-205.909	-36.07	55.8722	
